<svg xmlns="http://www.w3.org/2000/svg" width="12" height="11" fill="none" viewBox="0 0 12 11"><path fill="#fff" fill-rule="evenodd" d="M0 5.99c.015-.195.123-.317.272-.407.344-.209.7-.393 1.086-.518.123-.04.23-.128.348-.183.14-.065.284-.12.427-.176q.245-.095.49-.186c.189-.07.373-.154.567-.201.257-.063.363-.238.428-.47.123-.444.238-.892.389-1.327.178-.514.385-1.018.592-1.522.117-.283.26-.556.391-.833.097-.203.245-.226.371-.04.074.108.11.242.161.366.247.601.37 1.247.668 1.831.105.206.145.445.233.661.129.318.277.627.41.943.038.088.1.102.18.1.208-.005.416-.027.622-.01.323.024.644-.048.97.026.198.046.416-.003.624.008.392.021.784.047 1.174.088.182.019.361.07.539.117.147.039.177.151.07.263-.122.127-.27.232-.376.37-.21.278-.525.42-.78.64q-.426.368-.864.725c-.116.094-.248.17-.37.255-.176.121-.202.205-.13.404.223.613.431 1.232.673 1.837.161.404.32.805.42 1.228.028.119.039.116-.023.26-.62-.239-1.245-.47-1.79-.865l-.02-.014c-.534-.221-1.008-.556-1.532-.796-.234-.106-.233-.1-.419.093-.255.265-.521.52-.77.79-.287.315-.557.645-.84.963-.15.168-.31.328-.47.486-.056.056-.124.15-.21.078a.54.54 0 0 1-.16-.24c-.032-.101-.025-.214-.028-.322-.006-.205-.041-.408-.05-.613-.022-.458-.091-.914-.15-1.37-.023-.17.013-.356-.103-.51a.07.07 0 0 1-.007-.048c.032-.124.065-.266-.041-.354-.151-.126-.327-.223-.495-.328-.062-.038-.133-.063-.198-.096l-.622-.326c-.044-.024-.089-.046-.129-.075-.27-.192-.576-.295-.892-.381C.405 6.248.174 6.167 0 5.99m5.201-4.517c-.056.042-.093.055-.105.081-.113.233-.246.46-.326.704-.143.437-.251.885-.38 1.326q-.123.423-.262.84c-.048.144-.124.274-.273.34q-.491.222-.986.44c-.103.044-.214.07-.318.115-.128.054-.25.125-.378.178-.244.1-.491.19-.787.304.602.329 1.147.64 1.773.755.26.048.437.173.487.436.05.262.099.526.126.79.051.508.087 1.017.131 1.526.002.018.028.034.05.06.175-.165.37-.306.509-.488.294-.385.563-.79.835-1.192.13-.192.407-.296.593-.189.239.137.47.288.703.436.182.117.347.273.543.35q.409.158.785.38c.125.074.261.13.447.222-.036-.155-.05-.252-.08-.343-.163-.485-.354-.96-.412-1.474-.016-.136-.043-.275-.175-.376-.088-.068-.094-.177-.019-.29.216-.322.527-.537.822-.77q.355-.282.7-.572c.052-.044.086-.108.145-.184-.088-.02-.138-.05-.181-.04-.386.076-.787-.055-1.168.09-.045.018-.1.014-.15.013-.299-.008-.6.006-.896-.036-.19-.027-.37-.134-.554-.21-.02-.007-.033-.037-.043-.059-.059-.129-.121-.257-.174-.388-.304-.763-.62-1.521-.829-2.317-.038-.145-.095-.284-.153-.458" clip-rule="evenodd"/><path fill="#fff" fill-rule="evenodd" d="M5.201 1.473c.059.174.115.313.153.457.21.797.525 1.555.83 2.318.052.131.114.26.173.388.01.022.023.052.043.06.183.074.363.182.554.209.295.041.597.028.897.036.05.001.104.005.15-.012.38-.146.78-.016 1.167-.092.043-.008.093.02.181.041-.059.076-.093.14-.144.183q-.347.292-.701.572c-.295.234-.606.45-.822.77-.076.114-.069.223.02.29.13.102.158.24.173.377.058.514.25.99.413 1.473.03.092.044.189.08.344-.186-.092-.322-.149-.447-.223a5.4 5.4 0 0 0-.785-.38c-.197-.076-.361-.233-.543-.349-.232-.148-.464-.299-.703-.436-.186-.107-.463-.003-.593.189-.272.402-.541.807-.835 1.192-.14.182-.334.322-.51.487-.022-.025-.048-.041-.05-.06-.043-.508-.079-1.017-.13-1.525a9 9 0 0 0-.126-.79c-.05-.264-.228-.388-.487-.436-.627-.115-1.171-.426-1.773-.755.296-.114.543-.205.787-.304.129-.053.25-.124.378-.179.104-.044.215-.07.318-.115q.495-.216.986-.439c.149-.066.225-.196.273-.34q.139-.418.263-.84c.128-.441.235-.89.379-1.326.08-.244.213-.471.326-.704.012-.026.05-.04.105-.08" clip-rule="evenodd"/></svg>